<svg width="50" height="50" viewBox="0 0 50 50" fill="none" xmlns="http://www.w3.org/2000/svg">
<path d="M28.9315 34.4167H21.1249V50H28.9315V34.4167Z" fill="#FFD11A"/>
<path d="M28.9315 0H21.1249V15.5833H28.9315V0Z" fill="#FFD11A"/>
<path d="M34.4146 21.0945V28.9001H50.0001V21.0945H34.4146Z" fill="#FFD11A"/>
<path d="M0 21.1016L0 28.9072H15.5855V21.1016H0Z" fill="#FFD11A"/>
<path d="M34.4293 28.8769L28.9092 34.3962L39.9297 45.4151L45.4498 39.8958L34.4293 28.8769Z" fill="#404040"/>
<path d="M10.092 4.54558L4.5719 10.0649L15.5924 21.0839L21.1125 15.5646L10.092 4.54558Z" fill="#404040"/>
<path d="M28.8901 15.5885L34.4102 21.1078L45.4307 10.0888L39.9106 4.56949L28.8901 15.5885Z" fill="#404040"/>
<path d="M4.55792 39.9197L10.078 45.439L21.0985 34.4201L15.5784 28.9008L4.55792 39.9197Z" fill="#404040"/>
</svg>
